<mxfile host="app.diagrams.net" agent="Mozilla/5.0 (Windows NT 10.0; Win64; x64) AppleWebKit/537.36 (KHTML, like Gecko) Chrome/134.0.0.0 Safari/537.36" version="26.1.3">
  <diagram name="Página-1" id="PBWf0IsmJgYy4qdDMAUZ">
    <mxGraphModel dx="1877" dy="557" grid="1" gridSize="10" guides="1" tooltips="1" connect="1" arrows="1" fold="1" page="1" pageScale="1" pageWidth="827" pageHeight="1169" math="0" shadow="0">
      <root>
        <mxCell id="0" />
        <mxCell id="1" parent="0" />
        <mxCell id="X2p8SpPgiToTha0TDPax-7" value="Segurança" style="text;html=1;align=center;verticalAlign=middle;whiteSpace=wrap;rounded=0;" parent="1" vertex="1">
          <mxGeometry x="280" y="20" width="60" height="30" as="geometry" />
        </mxCell>
        <mxCell id="X2p8SpPgiToTha0TDPax-8" value="Central de controle" style="text;html=1;align=center;verticalAlign=middle;whiteSpace=wrap;rounded=0;" parent="1" vertex="1">
          <mxGeometry x="430" y="20" width="200" height="30" as="geometry" />
        </mxCell>
        <mxCell id="X2p8SpPgiToTha0TDPax-9" value="Introduzir Senha / Biometria" style="rounded=1;whiteSpace=wrap;html=1;" parent="1" vertex="1">
          <mxGeometry x="253" y="100" width="120" height="60" as="geometry" />
        </mxCell>
        <mxCell id="X2p8SpPgiToTha0TDPax-11" value="Banco de dados" style="text;html=1;align=center;verticalAlign=middle;whiteSpace=wrap;rounded=0;" parent="1" vertex="1">
          <mxGeometry x="-10" y="20" width="240" height="30" as="geometry" />
        </mxCell>
        <mxCell id="X2p8SpPgiToTha0TDPax-14" value="Inicia a operação dos Drones" style="rounded=1;whiteSpace=wrap;html=1;" parent="1" vertex="1">
          <mxGeometry x="520" y="190" width="120" height="60" as="geometry" />
        </mxCell>
        <mxCell id="1f63iJSsUpzgmk3ljbUG-4" value="" style="endArrow=classic;html=1;rounded=0;exitX=0.5;exitY=1;exitDx=0;exitDy=0;entryX=0.5;entryY=0;entryDx=0;entryDy=0;" edge="1" parent="1" source="X2p8SpPgiToTha0TDPax-14" target="1f63iJSsUpzgmk3ljbUG-5">
          <mxGeometry width="50" height="50" relative="1" as="geometry">
            <mxPoint x="350" y="320" as="sourcePoint" />
            <mxPoint x="530" y="320" as="targetPoint" />
            <Array as="points" />
          </mxGeometry>
        </mxCell>
        <mxCell id="1f63iJSsUpzgmk3ljbUG-5" value="" style="rounded=1;whiteSpace=wrap;html=1;" vertex="1" parent="1">
          <mxGeometry x="520" y="320" width="120" height="60" as="geometry" />
        </mxCell>
        <mxCell id="1f63iJSsUpzgmk3ljbUG-6" value="Carrega a Navegação Do Drone" style="text;html=1;align=center;verticalAlign=middle;whiteSpace=wrap;rounded=0;" vertex="1" parent="1">
          <mxGeometry x="540" y="335" width="60" height="30" as="geometry" />
        </mxCell>
        <mxCell id="1f63iJSsUpzgmk3ljbUG-9" value="" style="rounded=1;whiteSpace=wrap;html=1;" vertex="1" parent="1">
          <mxGeometry x="-50" y="190" width="120" height="60" as="geometry" />
        </mxCell>
        <mxCell id="1f63iJSsUpzgmk3ljbUG-11" value="Gera Logs" style="text;html=1;align=center;verticalAlign=middle;whiteSpace=wrap;rounded=0;" vertex="1" parent="1">
          <mxGeometry x="-20" y="205" width="60" height="30" as="geometry" />
        </mxCell>
        <mxCell id="1f63iJSsUpzgmk3ljbUG-13" value="" style="rounded=1;whiteSpace=wrap;html=1;" vertex="1" parent="1">
          <mxGeometry x="10" y="320" width="120" height="60" as="geometry" />
        </mxCell>
        <mxCell id="1f63iJSsUpzgmk3ljbUG-15" value="Criptografa Logs" style="text;html=1;align=center;verticalAlign=middle;whiteSpace=wrap;rounded=0;" vertex="1" parent="1">
          <mxGeometry x="40" y="335" width="60" height="30" as="geometry" />
        </mxCell>
        <mxCell id="1f63iJSsUpzgmk3ljbUG-16" value="" style="rounded=1;whiteSpace=wrap;html=1;" vertex="1" parent="1">
          <mxGeometry x="-120" y="320" width="120" height="60" as="geometry" />
        </mxCell>
        <mxCell id="1f63iJSsUpzgmk3ljbUG-19" value="" style="ellipse;whiteSpace=wrap;html=1;aspect=fixed;" vertex="1" parent="1">
          <mxGeometry x="303" y="50" width="20" height="20" as="geometry" />
        </mxCell>
        <mxCell id="1f63iJSsUpzgmk3ljbUG-20" value="" style="endArrow=classic;html=1;rounded=0;exitX=0.5;exitY=1;exitDx=0;exitDy=0;entryX=0.5;entryY=0;entryDx=0;entryDy=0;" edge="1" parent="1" source="1f63iJSsUpzgmk3ljbUG-19" target="X2p8SpPgiToTha0TDPax-9">
          <mxGeometry width="50" height="50" relative="1" as="geometry">
            <mxPoint x="350" y="320" as="sourcePoint" />
            <mxPoint x="400" y="270" as="targetPoint" />
          </mxGeometry>
        </mxCell>
        <mxCell id="1f63iJSsUpzgmk3ljbUG-21" value="" style="endArrow=classic;html=1;rounded=0;entryX=0.5;entryY=0;entryDx=0;entryDy=0;exitX=0.5;exitY=1;exitDx=0;exitDy=0;" edge="1" parent="1" source="X2p8SpPgiToTha0TDPax-9" target="X2p8SpPgiToTha0TDPax-14">
          <mxGeometry width="50" height="50" relative="1" as="geometry">
            <mxPoint x="480" y="180" as="sourcePoint" />
            <mxPoint x="530" y="130" as="targetPoint" />
            <Array as="points">
              <mxPoint x="450" y="180" />
            </Array>
          </mxGeometry>
        </mxCell>
        <mxCell id="1f63iJSsUpzgmk3ljbUG-23" value="" style="strokeWidth=2;html=1;shape=mxgraph.flowchart.annotation_2;align=left;labelPosition=right;pointerEvents=1;rotation=90;" vertex="1" parent="1">
          <mxGeometry x="-30" y="230" width="70" height="105" as="geometry" />
        </mxCell>
        <mxCell id="1f63iJSsUpzgmk3ljbUG-24" value="Sincroniza Dados Instanteneamente" style="text;html=1;align=center;verticalAlign=middle;whiteSpace=wrap;rounded=0;" vertex="1" parent="1">
          <mxGeometry x="-90" y="335" width="60" height="30" as="geometry" />
        </mxCell>
        <mxCell id="1f63iJSsUpzgmk3ljbUG-25" value="" style="endArrow=classic;html=1;rounded=0;exitX=0.5;exitY=1;exitDx=0;exitDy=0;entryX=0.5;entryY=0;entryDx=0;entryDy=0;" edge="1" parent="1" source="X2p8SpPgiToTha0TDPax-9" target="1f63iJSsUpzgmk3ljbUG-9">
          <mxGeometry width="50" height="50" relative="1" as="geometry">
            <mxPoint x="350" y="320" as="sourcePoint" />
            <mxPoint x="400" y="270" as="targetPoint" />
            <Array as="points">
              <mxPoint x="160" y="180" />
            </Array>
          </mxGeometry>
        </mxCell>
        <mxCell id="1f63iJSsUpzgmk3ljbUG-26" value="" style="rhombus;whiteSpace=wrap;html=1;" vertex="1" parent="1">
          <mxGeometry x="301.5" y="220" width="23" height="20" as="geometry" />
        </mxCell>
        <mxCell id="1f63iJSsUpzgmk3ljbUG-27" value="" style="endArrow=classic;html=1;rounded=0;exitX=0.5;exitY=1;exitDx=0;exitDy=0;" edge="1" parent="1" source="1f63iJSsUpzgmk3ljbUG-26">
          <mxGeometry width="50" height="50" relative="1" as="geometry">
            <mxPoint x="300" y="290" as="sourcePoint" />
            <mxPoint x="313" y="270" as="targetPoint" />
          </mxGeometry>
        </mxCell>
        <mxCell id="1f63iJSsUpzgmk3ljbUG-28" value="" style="endArrow=classic;html=1;rounded=0;entryX=0.5;entryY=0;entryDx=0;entryDy=0;" edge="1" parent="1" target="1f63iJSsUpzgmk3ljbUG-26">
          <mxGeometry width="50" height="50" relative="1" as="geometry">
            <mxPoint x="313" y="160" as="sourcePoint" />
            <mxPoint x="360" y="170" as="targetPoint" />
          </mxGeometry>
        </mxCell>
        <mxCell id="1f63iJSsUpzgmk3ljbUG-29" value="Senha / Id Válidos" style="text;html=1;align=center;verticalAlign=middle;whiteSpace=wrap;rounded=0;" vertex="1" parent="1">
          <mxGeometry x="430" y="140" width="60" height="30" as="geometry" />
        </mxCell>
        <mxCell id="1f63iJSsUpzgmk3ljbUG-30" value="Senha / Id Válidos" style="text;html=1;align=center;verticalAlign=middle;whiteSpace=wrap;rounded=0;" vertex="1" parent="1">
          <mxGeometry x="80" y="130" width="60" height="30" as="geometry" />
        </mxCell>
        <mxCell id="1f63iJSsUpzgmk3ljbUG-32" value="Senha / Id&lt;br&gt;Inválidos" style="text;html=1;align=center;verticalAlign=middle;whiteSpace=wrap;rounded=0;" vertex="1" parent="1">
          <mxGeometry x="324.5" y="190" width="60" height="30" as="geometry" />
        </mxCell>
        <mxCell id="1f63iJSsUpzgmk3ljbUG-33" value="" style="rounded=1;whiteSpace=wrap;html=1;" vertex="1" parent="1">
          <mxGeometry x="261.5" y="270" width="103" height="50" as="geometry" />
        </mxCell>
        <mxCell id="1f63iJSsUpzgmk3ljbUG-34" value="Reintroduzir&lt;div&gt;Dados&lt;/div&gt;" style="text;html=1;align=center;verticalAlign=middle;whiteSpace=wrap;rounded=0;" vertex="1" parent="1">
          <mxGeometry x="283" y="280" width="60" height="30" as="geometry" />
        </mxCell>
        <mxCell id="1f63iJSsUpzgmk3ljbUG-36" value="" style="endArrow=classic;html=1;rounded=0;exitX=0.5;exitY=1;exitDx=0;exitDy=0;" edge="1" parent="1" source="1f63iJSsUpzgmk3ljbUG-33">
          <mxGeometry width="50" height="50" relative="1" as="geometry">
            <mxPoint x="320" y="400" as="sourcePoint" />
            <mxPoint x="313" y="360" as="targetPoint" />
          </mxGeometry>
        </mxCell>
        <mxCell id="1f63iJSsUpzgmk3ljbUG-39" value="" style="rhombus;whiteSpace=wrap;html=1;" vertex="1" parent="1">
          <mxGeometry x="302" y="360" width="23" height="20" as="geometry" />
        </mxCell>
        <mxCell id="1f63iJSsUpzgmk3ljbUG-40" value="" style="endArrow=classic;html=1;rounded=0;" edge="1" parent="1">
          <mxGeometry width="50" height="50" relative="1" as="geometry">
            <mxPoint x="325" y="370" as="sourcePoint" />
            <mxPoint x="365" y="370" as="targetPoint" />
            <Array as="points" />
          </mxGeometry>
        </mxCell>
        <mxCell id="1f63iJSsUpzgmk3ljbUG-42" value="" style="ellipse;whiteSpace=wrap;html=1;aspect=fixed;" vertex="1" parent="1">
          <mxGeometry x="364.5" y="362" width="16" height="16" as="geometry" />
        </mxCell>
        <mxCell id="1f63iJSsUpzgmk3ljbUG-44" value="Não há mais tentativas válidas" style="text;html=1;align=center;verticalAlign=middle;whiteSpace=wrap;rounded=0;" vertex="1" parent="1">
          <mxGeometry x="325" y="330" width="95.5" height="30" as="geometry" />
        </mxCell>
        <mxCell id="1f63iJSsUpzgmk3ljbUG-46" value="" style="endArrow=classic;html=1;rounded=0;exitX=0;exitY=0.5;exitDx=0;exitDy=0;entryX=0;entryY=0.5;entryDx=0;entryDy=0;" edge="1" parent="1" source="1f63iJSsUpzgmk3ljbUG-39" target="X2p8SpPgiToTha0TDPax-9">
          <mxGeometry width="50" height="50" relative="1" as="geometry">
            <mxPoint x="200" y="370" as="sourcePoint" />
            <mxPoint x="240" y="130" as="targetPoint" />
            <Array as="points">
              <mxPoint x="220" y="370" />
              <mxPoint x="220" y="250" />
              <mxPoint x="220" y="130" />
            </Array>
          </mxGeometry>
        </mxCell>
        <mxCell id="1f63iJSsUpzgmk3ljbUG-47" value="Há tentativas válidas" style="text;html=1;align=center;verticalAlign=middle;whiteSpace=wrap;rounded=0;" vertex="1" parent="1">
          <mxGeometry x="230" y="335" width="80" height="30" as="geometry" />
        </mxCell>
      </root>
    </mxGraphModel>
  </diagram>
</mxfile>
